<svg xmlns="http://www.w3.org/2000/svg" xmlns:xlink="http://www.w3.org/1999/xlink" width="500" zoomAndPan="magnify" viewBox="0 0 375 374.999991" height="500" preserveAspectRatio="xMidYMid meet" version="1.0"><defs><clipPath id="90a18d5b4a"><path d="M 176 249 L 337.378906 249 L 337.378906 362.535156 L 176 362.535156 Z M 176 249 " clip-rule="nonzero"/></clipPath><clipPath id="dfbf46e6b1"><path d="M 34.496094 12.285156 L 261 12.285156 L 261 209 L 34.496094 209 Z M 34.496094 12.285156 " clip-rule="nonzero"/></clipPath></defs><g clip-path="url(#90a18d5b4a)"><path fill="#64ffda" d="M 254.273438 362.535156 L 200.839844 362.535156 C 200.164062 362.554688 199.5 362.460938 198.855469 362.253906 C 198.207031 362.046875 197.617188 361.738281 197.074219 361.328125 C 196.535156 360.917969 196.078125 360.429688 195.707031 359.863281 C 195.332031 359.296875 195.066406 358.683594 194.902344 358.023438 L 177.09375 286.789062 C 176.867188 285.898438 176.847656 285.007812 177.035156 284.109375 C 177.222656 283.214844 177.597656 282.40625 178.160156 281.683594 C 178.726562 280.964844 179.421875 280.410156 180.246094 280.011719 C 181.070312 279.617188 181.9375 279.421875 182.851562 279.425781 L 207.429688 279.425781 C 210.695312 262.625 227.796875 249.746094 248.335938 249.746094 L 295.835938 249.746094 C 318.753906 249.746094 337.394531 265.714844 337.394531 285.363281 L 337.394531 338.789062 C 337.394531 351.910156 324.09375 362.535156 307.707031 362.535156 Z M 205.472656 350.664062 L 230.703125 350.664062 C 228.761719 348.101562 227.28125 345.296875 226.265625 342.25 C 225.25 339.199219 224.75 336.066406 224.765625 332.855469 C 224.765625 332.464844 224.804688 332.078125 224.882812 331.695312 C 224.957031 331.3125 225.070312 330.941406 225.21875 330.582031 C 225.367188 330.222656 225.550781 329.878906 225.769531 329.554688 C 225.984375 329.230469 226.230469 328.933594 226.507812 328.65625 C 226.78125 328.382812 227.082031 328.136719 227.40625 327.917969 C 227.730469 327.703125 228.074219 327.519531 228.433594 327.371094 C 228.792969 327.21875 229.164062 327.109375 229.546875 327.03125 C 229.929688 326.957031 230.316406 326.917969 230.703125 326.917969 L 270.421875 326.917969 L 261.519531 291.300781 L 190.628906 291.300781 Z M 307.707031 350.664062 C 317.386719 350.664062 325.519531 345.203125 325.519531 338.789062 L 325.519531 285.363281 C 325.519531 272.242188 312.222656 261.617188 295.835938 261.617188 L 248.335938 261.617188 C 246.839844 261.53125 245.34375 261.558594 243.851562 261.699219 C 242.359375 261.84375 240.886719 262.101562 239.429688 262.46875 C 237.976562 262.839844 236.5625 263.320312 235.179688 263.90625 C 233.800781 264.496094 232.472656 265.1875 231.199219 265.976562 C 229.925781 266.769531 228.722656 267.65625 227.585938 268.632812 C 226.449219 269.613281 225.390625 270.671875 224.417969 271.8125 C 223.445312 272.953125 222.5625 274.164062 221.777344 275.4375 C 220.988281 276.714844 220.304688 278.042969 219.722656 279.425781 L 266.148438 279.425781 C 266.828125 279.40625 267.488281 279.5 268.136719 279.707031 C 268.78125 279.914062 269.375 280.222656 269.914062 280.632812 C 270.453125 281.042969 270.910156 281.53125 271.285156 282.101562 C 271.65625 282.667969 271.921875 283.28125 272.085938 283.9375 L 282.652344 326.917969 L 295.835938 326.917969 L 295.835938 309.109375 L 307.707031 309.109375 L 307.707031 332.855469 C 307.707031 333.242188 307.671875 333.628906 307.59375 334.011719 C 307.519531 334.394531 307.40625 334.765625 307.257812 335.125 C 307.109375 335.484375 306.925781 335.828125 306.707031 336.152344 C 306.492188 336.476562 306.246094 336.777344 305.96875 337.050781 C 305.695312 337.328125 305.394531 337.574219 305.070312 337.789062 C 304.746094 338.007812 304.402344 338.191406 304.042969 338.339844 C 303.683594 338.488281 303.3125 338.601562 302.929688 338.675781 C 302.546875 338.753906 302.160156 338.789062 301.773438 338.789062 L 237.472656 338.789062 C 237.777344 339.652344 238.148438 340.488281 238.582031 341.296875 C 239.015625 342.101562 239.507812 342.871094 240.0625 343.601562 C 240.613281 344.328125 241.21875 345.011719 241.878906 345.648438 C 242.535156 346.289062 243.238281 346.871094 243.984375 347.398438 C 244.734375 347.925781 245.519531 348.394531 246.335938 348.800781 C 247.15625 349.210938 248.003906 349.550781 248.878906 349.828125 C 249.75 350.105469 250.640625 350.316406 251.542969 350.453125 C 252.449219 350.59375 253.359375 350.664062 254.273438 350.664062 Z M 307.707031 350.664062 " fill-opacity="1" fill-rule="nonzero"/></g><path fill="#64ffda" d="M 236.464844 208.1875 C 236.464844 207.023438 236.519531 205.859375 236.636719 204.699219 C 236.75 203.535156 236.921875 202.382812 237.148438 201.238281 C 237.375 200.097656 237.660156 198.964844 237.996094 197.847656 C 238.335938 196.734375 238.730469 195.636719 239.175781 194.558594 C 239.621094 193.480469 240.121094 192.425781 240.667969 191.398438 C 241.21875 190.371094 241.820312 189.371094 242.46875 188.402344 C 243.113281 187.429688 243.808594 186.496094 244.550781 185.59375 C 245.289062 184.691406 246.070312 183.828125 246.898438 183.003906 C 247.722656 182.179688 248.585938 181.394531 249.488281 180.65625 C 250.390625 179.914062 251.324219 179.222656 252.296875 178.574219 C 253.265625 177.925781 254.265625 177.324219 255.292969 176.777344 C 256.324219 176.226562 257.375 175.726562 258.453125 175.28125 C 259.53125 174.835938 260.628906 174.441406 261.746094 174.105469 C 262.863281 173.765625 263.992188 173.480469 265.136719 173.253906 C 266.28125 173.027344 267.433594 172.855469 268.59375 172.742188 C 269.753906 172.628906 270.917969 172.570312 272.085938 172.570312 C 273.253906 172.570312 274.417969 172.628906 275.578125 172.742188 C 276.738281 172.855469 277.890625 173.027344 279.035156 173.253906 C 280.179688 173.480469 281.308594 173.765625 282.425781 174.105469 C 283.542969 174.441406 284.640625 174.835938 285.71875 175.28125 C 286.796875 175.726562 287.851562 176.226562 288.878906 176.777344 C 289.90625 177.324219 290.90625 177.925781 291.878906 178.574219 C 292.847656 179.222656 293.78125 179.914062 294.683594 180.65625 C 295.585938 181.394531 296.449219 182.179688 297.273438 183.003906 C 298.101562 183.828125 298.882812 184.691406 299.621094 185.59375 C 300.363281 186.496094 301.058594 187.429688 301.707031 188.402344 C 302.355469 189.371094 302.953125 190.371094 303.503906 191.398438 C 304.050781 192.425781 304.550781 193.480469 304.996094 194.558594 C 305.445312 195.636719 305.835938 196.734375 306.175781 197.847656 C 306.515625 198.964844 306.796875 200.097656 307.023438 201.238281 C 307.253906 202.382812 307.421875 203.535156 307.539062 204.699219 C 307.652344 205.859375 307.707031 207.023438 307.707031 208.1875 C 307.707031 209.355469 307.652344 210.519531 307.539062 211.679688 C 307.421875 212.839844 307.253906 213.992188 307.023438 215.136719 C 306.796875 216.28125 306.515625 217.414062 306.175781 218.527344 C 305.835938 219.644531 305.445312 220.742188 304.996094 221.820312 C 304.550781 222.898438 304.050781 223.949219 303.503906 224.980469 C 302.953125 226.007812 302.355469 227.007812 301.707031 227.976562 C 301.058594 228.949219 300.363281 229.882812 299.621094 230.785156 C 298.882812 231.6875 298.101562 232.550781 297.273438 233.375 C 296.449219 234.199219 295.585938 234.984375 294.683594 235.722656 C 293.78125 236.460938 292.847656 237.15625 291.878906 237.804688 C 290.90625 238.453125 289.90625 239.050781 288.878906 239.601562 C 287.851562 240.152344 286.796875 240.648438 285.71875 241.097656 C 284.640625 241.542969 283.542969 241.933594 282.425781 242.273438 C 281.308594 242.613281 280.179688 242.894531 279.035156 243.125 C 277.890625 243.351562 276.738281 243.523438 275.578125 243.636719 C 274.417969 243.75 273.253906 243.808594 272.085938 243.808594 C 270.917969 243.808594 269.753906 243.75 268.59375 243.636719 C 267.433594 243.523438 266.28125 243.351562 265.136719 243.125 C 263.992188 242.894531 262.863281 242.613281 261.746094 242.273438 C 260.628906 241.933594 259.53125 241.542969 258.453125 241.097656 C 257.375 240.648438 256.324219 240.152344 255.292969 239.601562 C 254.265625 239.050781 253.265625 238.453125 252.296875 237.804688 C 251.324219 237.15625 250.390625 236.460938 249.488281 235.722656 C 248.585938 234.984375 247.722656 234.199219 246.898438 233.375 C 246.070312 232.550781 245.289062 231.6875 244.550781 230.785156 C 243.808594 229.882812 243.113281 228.949219 242.46875 227.976562 C 241.820312 227.007812 241.21875 226.007812 240.667969 224.980469 C 240.121094 223.949219 239.621094 222.898438 239.175781 221.820312 C 238.730469 220.742188 238.335938 219.644531 237.996094 218.527344 C 237.660156 217.414062 237.375 216.28125 237.148438 215.136719 C 236.921875 213.992188 236.75 212.839844 236.636719 211.679688 C 236.519531 210.519531 236.464844 209.355469 236.464844 208.1875 Z M 295.835938 208.1875 C 295.835938 207.410156 295.796875 206.636719 295.71875 205.863281 C 295.644531 205.085938 295.53125 204.320312 295.378906 203.554688 C 295.226562 202.792969 295.039062 202.039062 294.8125 201.296875 C 294.585938 200.550781 294.324219 199.820312 294.027344 199.101562 C 293.730469 198.382812 293.398438 197.679688 293.03125 196.996094 C 292.664062 196.308594 292.265625 195.644531 291.832031 194.996094 C 291.398438 194.351562 290.9375 193.726562 290.445312 193.125 C 289.949219 192.523438 289.429688 191.949219 288.878906 191.398438 C 288.328125 190.847656 287.753906 190.328125 287.152344 189.832031 C 286.550781 189.339844 285.925781 188.878906 285.28125 188.445312 C 284.632812 188.011719 283.96875 187.613281 283.28125 187.246094 C 282.59375 186.878906 281.894531 186.546875 281.175781 186.25 C 280.457031 185.953125 279.722656 185.691406 278.980469 185.464844 C 278.234375 185.238281 277.480469 185.050781 276.71875 184.898438 C 275.957031 184.746094 275.1875 184.632812 274.414062 184.558594 C 273.640625 184.480469 272.863281 184.441406 272.085938 184.441406 C 271.308594 184.441406 270.53125 184.480469 269.757812 184.558594 C 268.984375 184.632812 268.214844 184.746094 267.453125 184.898438 C 266.691406 185.050781 265.9375 185.238281 265.191406 185.464844 C 264.449219 185.691406 263.714844 185.953125 263 186.25 C 262.28125 186.546875 261.578125 186.878906 260.890625 187.246094 C 260.207031 187.613281 259.539062 188.011719 258.890625 188.445312 C 258.246094 188.878906 257.621094 189.339844 257.019531 189.832031 C 256.417969 190.328125 255.84375 190.847656 255.292969 191.398438 C 254.742188 191.949219 254.222656 192.523438 253.726562 193.125 C 253.234375 193.726562 252.773438 194.351562 252.339844 194.996094 C 251.90625 195.644531 251.507812 196.308594 251.140625 196.996094 C 250.773438 197.679688 250.441406 198.382812 250.144531 199.101562 C 249.847656 199.820312 249.585938 200.550781 249.359375 201.296875 C 249.132812 202.039062 248.945312 202.792969 248.792969 203.554688 C 248.640625 204.320312 248.527344 205.085938 248.453125 205.863281 C 248.375 206.636719 248.335938 207.410156 248.335938 208.1875 C 248.335938 208.964844 248.375 209.742188 248.453125 210.515625 C 248.527344 211.289062 248.640625 212.058594 248.792969 212.820312 C 248.945312 213.585938 249.132812 214.335938 249.359375 215.082031 C 249.585938 215.828125 249.847656 216.558594 250.144531 217.277344 C 250.441406 217.996094 250.773438 218.695312 251.140625 219.382812 C 251.507812 220.070312 251.90625 220.734375 252.339844 221.382812 C 252.773438 222.027344 253.234375 222.652344 253.726562 223.253906 C 254.222656 223.855469 254.742188 224.429688 255.292969 224.980469 C 255.84375 225.53125 256.417969 226.050781 257.019531 226.542969 C 257.621094 227.039062 258.246094 227.5 258.890625 227.933594 C 259.539062 228.363281 260.207031 228.765625 260.890625 229.132812 C 261.578125 229.496094 262.28125 229.828125 263 230.128906 C 263.714844 230.425781 264.449219 230.6875 265.191406 230.914062 C 265.9375 231.136719 266.691406 231.328125 267.453125 231.480469 C 268.214844 231.628906 268.984375 231.746094 269.757812 231.820312 C 270.53125 231.898438 271.308594 231.933594 272.085938 231.933594 C 272.863281 231.933594 273.640625 231.898438 274.414062 231.820312 C 275.1875 231.746094 275.957031 231.628906 276.71875 231.480469 C 277.480469 231.328125 278.234375 231.136719 278.980469 230.914062 C 279.722656 230.6875 280.457031 230.425781 281.175781 230.128906 C 281.894531 229.828125 282.59375 229.496094 283.28125 229.132812 C 283.96875 228.765625 284.632812 228.363281 285.28125 227.933594 C 285.925781 227.5 286.550781 227.039062 287.152344 226.542969 C 287.753906 226.050781 288.328125 225.53125 288.878906 224.980469 C 289.429688 224.429688 289.949219 223.855469 290.445312 223.253906 C 290.9375 222.652344 291.398438 222.027344 291.832031 221.382812 C 292.265625 220.734375 292.664062 220.070312 293.03125 219.382812 C 293.398438 218.695312 293.730469 217.996094 294.027344 217.277344 C 294.324219 216.558594 294.585938 215.828125 294.8125 215.082031 C 295.039062 214.335938 295.226562 213.585938 295.378906 212.820312 C 295.53125 212.058594 295.644531 211.289062 295.71875 210.515625 C 295.796875 209.742188 295.835938 208.964844 295.835938 208.1875 Z M 295.835938 208.1875 " fill-opacity="1" fill-rule="nonzero"/><g clip-path="url(#dfbf46e6b1)"><path fill="#64ffda" d="M 260.210938 30.097656 L 260.210938 148.824219 C 260.210938 149.40625 260.183594 149.988281 260.125 150.570312 C 260.070312 151.152344 259.984375 151.726562 259.871094 152.300781 C 259.757812 152.871094 259.613281 153.4375 259.445312 153.996094 C 259.277344 154.550781 259.078125 155.101562 258.855469 155.640625 C 258.632812 156.179688 258.382812 156.707031 258.109375 157.21875 C 257.832031 157.734375 257.535156 158.234375 257.210938 158.71875 C 256.886719 159.203125 256.539062 159.671875 256.167969 160.121094 C 255.800781 160.574219 255.40625 161.003906 254.996094 161.417969 C 254.582031 161.832031 254.152344 162.222656 253.699219 162.589844 C 253.25 162.960938 252.78125 163.308594 252.296875 163.632812 C 251.8125 163.957031 251.3125 164.257812 250.796875 164.53125 C 250.28125 164.804688 249.753906 165.054688 249.214844 165.277344 C 248.679688 165.5 248.128906 165.699219 247.570312 165.867188 C 247.011719 166.035156 246.449219 166.179688 245.875 166.292969 C 245.304688 166.40625 244.726562 166.492188 244.144531 166.546875 C 243.566406 166.605469 242.984375 166.632812 242.402344 166.632812 L 218.652344 166.632812 L 218.652344 202.253906 C 218.652344 202.824219 218.570312 203.382812 218.40625 203.929688 C 218.242188 204.476562 218.007812 204.992188 217.695312 205.46875 C 217.386719 205.949219 217.015625 206.375 216.582031 206.746094 C 216.148438 207.117188 215.671875 207.421875 215.148438 207.65625 C 214.628906 207.886719 214.089844 208.042969 213.523438 208.121094 C 212.960938 208.199219 212.394531 208.199219 211.832031 208.113281 C 211.269531 208.027344 210.730469 207.867188 210.214844 207.628906 C 209.695312 207.386719 209.222656 207.082031 208.796875 206.703125 L 162.960938 166.632812 L 52.414062 166.632812 C 51.828125 166.632812 51.246094 166.605469 50.667969 166.546875 C 50.085938 166.492188 49.511719 166.40625 48.9375 166.292969 C 48.367188 166.179688 47.800781 166.035156 47.242188 165.867188 C 46.683594 165.699219 46.136719 165.5 45.597656 165.277344 C 45.058594 165.054688 44.53125 164.804688 44.015625 164.53125 C 43.503906 164.257812 43.003906 163.957031 42.515625 163.632812 C 42.03125 163.308594 41.5625 162.960938 41.113281 162.589844 C 40.664062 162.222656 40.230469 161.832031 39.816406 161.417969 C 39.40625 161.003906 39.015625 160.574219 38.644531 160.121094 C 38.273438 159.671875 37.925781 159.203125 37.601562 158.71875 C 37.277344 158.234375 36.980469 157.734375 36.703125 157.21875 C 36.429688 156.707031 36.179688 156.179688 35.957031 155.640625 C 35.734375 155.101562 35.539062 154.550781 35.367188 153.996094 C 35.199219 153.4375 35.058594 152.871094 34.945312 152.300781 C 34.828125 151.726562 34.746094 151.152344 34.6875 150.570312 C 34.628906 149.988281 34.601562 149.40625 34.601562 148.824219 L 34.601562 30.097656 C 34.601562 29.511719 34.628906 28.929688 34.6875 28.351562 C 34.746094 27.769531 34.828125 27.195312 34.945312 26.621094 C 35.058594 26.050781 35.199219 25.484375 35.367188 24.925781 C 35.539062 24.367188 35.734375 23.820312 35.957031 23.28125 C 36.179688 22.742188 36.429688 22.214844 36.703125 21.699219 C 36.980469 21.1875 37.277344 20.6875 37.601562 20.203125 C 37.925781 19.714844 38.273438 19.25 38.644531 18.796875 C 39.015625 18.347656 39.40625 17.914062 39.816406 17.503906 C 40.230469 17.089844 40.664062 16.699219 41.113281 16.328125 C 41.5625 15.960938 42.03125 15.613281 42.515625 15.289062 C 43.003906 14.964844 43.503906 14.664062 44.015625 14.390625 C 44.53125 14.113281 45.058594 13.867188 45.597656 13.640625 C 46.136719 13.417969 46.683594 13.222656 47.242188 13.054688 C 47.800781 12.882812 48.367188 12.742188 48.9375 12.628906 C 49.511719 12.515625 50.085938 12.429688 50.667969 12.371094 C 51.246094 12.316406 51.828125 12.285156 52.414062 12.285156 L 242.402344 12.285156 C 242.984375 12.285156 243.566406 12.316406 244.144531 12.371094 C 244.726562 12.429688 245.304688 12.515625 245.875 12.628906 C 246.449219 12.742188 247.011719 12.882812 247.570312 13.054688 C 248.128906 13.222656 248.679688 13.417969 249.214844 13.640625 C 249.753906 13.867188 250.28125 14.113281 250.796875 14.390625 C 251.3125 14.664062 251.8125 14.964844 252.296875 15.289062 C 252.78125 15.613281 253.25 15.960938 253.699219 16.328125 C 254.152344 16.699219 254.582031 17.089844 254.996094 17.503906 C 255.40625 17.914062 255.800781 18.347656 256.167969 18.796875 C 256.539062 19.25 256.886719 19.714844 257.210938 20.203125 C 257.535156 20.6875 257.832031 21.1875 258.109375 21.699219 C 258.382812 22.214844 258.632812 22.742188 258.855469 23.28125 C 259.078125 23.820312 259.277344 24.367188 259.445312 24.925781 C 259.613281 25.484375 259.757812 26.050781 259.871094 26.621094 C 259.984375 27.195312 260.070312 27.769531 260.125 28.351562 C 260.183594 28.929688 260.210938 29.511719 260.210938 30.097656 Z M 46.476562 30.097656 L 46.476562 148.824219 C 46.476562 149.214844 46.511719 149.601562 46.589844 149.984375 C 46.664062 150.363281 46.777344 150.734375 46.925781 151.097656 C 47.078125 151.457031 47.257812 151.796875 47.476562 152.121094 C 47.691406 152.445312 47.9375 152.746094 48.214844 153.023438 C 48.488281 153.296875 48.789062 153.542969 49.113281 153.761719 C 49.4375 153.976562 49.78125 154.160156 50.140625 154.308594 C 50.5 154.457031 50.871094 154.570312 51.253906 154.648438 C 51.636719 154.722656 52.023438 154.761719 52.414062 154.761719 L 165.21875 154.761719 C 166.710938 154.761719 168.015625 155.257812 169.136719 156.246094 L 206.777344 189.191406 L 206.777344 160.699219 C 206.777344 160.308594 206.816406 159.921875 206.890625 159.539062 C 206.96875 159.15625 207.082031 158.785156 207.230469 158.425781 C 207.378906 158.066406 207.5625 157.722656 207.777344 157.398438 C 207.996094 157.074219 208.242188 156.777344 208.515625 156.5 C 208.792969 156.222656 209.09375 155.976562 209.417969 155.761719 C 209.742188 155.546875 210.082031 155.363281 210.441406 155.214844 C 210.804688 155.0625 211.175781 154.953125 211.558594 154.875 C 211.9375 154.800781 212.324219 154.761719 212.714844 154.761719 L 242.402344 154.761719 C 242.789062 154.761719 243.175781 154.722656 243.558594 154.648438 C 243.941406 154.570312 244.3125 154.457031 244.671875 154.308594 C 245.03125 154.160156 245.375 153.976562 245.699219 153.761719 C 246.023438 153.542969 246.324219 153.296875 246.597656 153.023438 C 246.875 152.746094 247.121094 152.445312 247.335938 152.121094 C 247.554688 151.796875 247.738281 151.457031 247.886719 151.097656 C 248.035156 150.734375 248.148438 150.363281 248.222656 149.984375 C 248.300781 149.601562 248.335938 149.214844 248.335938 148.824219 L 248.335938 30.097656 C 248.335938 29.707031 248.300781 29.320312 248.222656 28.9375 C 248.148438 28.554688 248.035156 28.183594 247.886719 27.824219 C 247.738281 27.464844 247.554688 27.121094 247.335938 26.796875 C 247.121094 26.472656 246.875 26.171875 246.597656 25.898438 C 246.324219 25.621094 246.023438 25.375 245.699219 25.160156 C 245.375 24.941406 245.03125 24.761719 244.671875 24.609375 C 244.3125 24.460938 243.941406 24.347656 243.558594 24.273438 C 243.175781 24.199219 242.789062 24.160156 242.402344 24.160156 L 52.414062 24.160156 C 52.023438 24.160156 51.636719 24.199219 51.253906 24.273438 C 50.871094 24.347656 50.5 24.460938 50.140625 24.609375 C 49.78125 24.761719 49.4375 24.941406 49.113281 25.160156 C 48.789062 25.375 48.488281 25.621094 48.214844 25.898438 C 47.9375 26.171875 47.691406 26.472656 47.476562 26.796875 C 47.257812 27.121094 47.078125 27.464844 46.925781 27.824219 C 46.777344 28.183594 46.664062 28.554688 46.589844 28.9375 C 46.511719 29.320312 46.476562 29.707031 46.476562 30.097656 Z M 46.476562 30.097656 " fill-opacity="1" fill-rule="nonzero"/></g><path fill="#64ffda" d="M 183.03125 89.460938 C 183.03125 90.238281 183.105469 91.011719 183.257812 91.777344 C 183.410156 92.542969 183.636719 93.285156 183.933594 94.003906 C 184.230469 94.722656 184.597656 95.410156 185.03125 96.054688 C 185.464844 96.703125 185.957031 97.304688 186.507812 97.855469 C 187.058594 98.40625 187.660156 98.898438 188.308594 99.332031 C 188.953125 99.765625 189.640625 100.132812 190.359375 100.429688 C 191.078125 100.726562 191.824219 100.953125 192.585938 101.105469 C 193.351562 101.257812 194.125 101.332031 194.902344 101.332031 C 195.683594 101.332031 196.457031 101.257812 197.21875 101.105469 C 197.984375 100.953125 198.726562 100.726562 199.449219 100.429688 C 200.167969 100.132812 200.851562 99.765625 201.5 99.332031 C 202.148438 98.898438 202.75 98.40625 203.300781 97.855469 C 203.851562 97.304688 204.34375 96.703125 204.777344 96.054688 C 205.210938 95.410156 205.574219 94.722656 205.875 94.003906 C 206.171875 93.285156 206.398438 92.542969 206.550781 91.777344 C 206.703125 91.011719 206.777344 90.238281 206.777344 89.460938 C 206.777344 88.679688 206.703125 87.910156 206.550781 87.144531 C 206.398438 86.378906 206.171875 85.636719 205.875 84.917969 C 205.574219 84.195312 205.210938 83.511719 204.777344 82.863281 C 204.34375 82.214844 203.851562 81.617188 203.300781 81.066406 C 202.75 80.511719 202.148438 80.019531 201.5 79.589844 C 200.851562 79.15625 200.167969 78.789062 199.449219 78.492188 C 198.726562 78.191406 197.984375 77.96875 197.21875 77.816406 C 196.457031 77.664062 195.683594 77.585938 194.902344 77.585938 C 194.125 77.585938 193.351562 77.664062 192.585938 77.816406 C 191.824219 77.96875 191.078125 78.191406 190.359375 78.492188 C 189.640625 78.789062 188.953125 79.15625 188.308594 79.589844 C 187.660156 80.019531 187.058594 80.511719 186.507812 81.066406 C 185.957031 81.617188 185.464844 82.214844 185.03125 82.863281 C 184.597656 83.511719 184.230469 84.195312 183.933594 84.917969 C 183.636719 85.636719 183.410156 86.378906 183.257812 87.144531 C 183.105469 87.910156 183.03125 88.679688 183.03125 89.460938 Z M 183.03125 89.460938 " fill-opacity="1" fill-rule="nonzero"/><path fill="#64ffda" d="M 135.53125 89.460938 C 135.53125 90.238281 135.609375 91.011719 135.761719 91.777344 C 135.914062 92.542969 136.136719 93.285156 136.4375 94.003906 C 136.734375 94.722656 137.101562 95.410156 137.535156 96.054688 C 137.964844 96.703125 138.457031 97.304688 139.011719 97.855469 C 139.5625 98.40625 140.160156 98.898438 140.808594 99.332031 C 141.457031 99.765625 142.140625 100.132812 142.863281 100.429688 C 143.582031 100.726562 144.324219 100.953125 145.089844 101.105469 C 145.855469 101.257812 146.628906 101.332031 147.40625 101.332031 C 148.1875 101.332031 148.957031 101.257812 149.722656 101.105469 C 150.488281 100.953125 151.230469 100.726562 151.949219 100.429688 C 152.671875 100.132812 153.355469 99.765625 154.003906 99.332031 C 154.652344 98.898438 155.25 98.40625 155.804688 97.855469 C 156.355469 97.304688 156.847656 96.703125 157.28125 96.054688 C 157.714844 95.410156 158.078125 94.722656 158.378906 94.003906 C 158.675781 93.285156 158.902344 92.542969 159.054688 91.777344 C 159.203125 91.011719 159.28125 90.238281 159.28125 89.460938 C 159.28125 88.679688 159.203125 87.910156 159.054688 87.144531 C 158.902344 86.378906 158.675781 85.636719 158.378906 84.917969 C 158.078125 84.195312 157.714844 83.511719 157.28125 82.863281 C 156.847656 82.214844 156.355469 81.617188 155.804688 81.066406 C 155.25 80.511719 154.652344 80.019531 154.003906 79.589844 C 153.355469 79.15625 152.671875 78.789062 151.949219 78.492188 C 151.230469 78.191406 150.488281 77.96875 149.722656 77.816406 C 148.957031 77.664062 148.1875 77.585938 147.40625 77.585938 C 146.628906 77.585938 145.855469 77.664062 145.089844 77.816406 C 144.324219 77.96875 143.582031 78.191406 142.863281 78.492188 C 142.140625 78.789062 141.457031 79.15625 140.808594 79.589844 C 140.160156 80.019531 139.5625 80.511719 139.011719 81.066406 C 138.457031 81.617188 137.964844 82.214844 137.535156 82.863281 C 137.101562 83.511719 136.734375 84.195312 136.4375 84.917969 C 136.136719 85.636719 135.914062 86.378906 135.761719 87.144531 C 135.609375 87.910156 135.53125 88.679688 135.53125 89.460938 Z M 135.53125 89.460938 " fill-opacity="1" fill-rule="nonzero"/><path fill="#64ffda" d="M 88.035156 89.460938 C 88.035156 90.238281 88.113281 91.011719 88.261719 91.777344 C 88.414062 92.542969 88.640625 93.285156 88.9375 94.003906 C 89.238281 94.722656 89.601562 95.410156 90.035156 96.054688 C 90.46875 96.703125 90.960938 97.304688 91.511719 97.855469 C 92.066406 98.40625 92.664062 98.898438 93.3125 99.332031 C 93.960938 99.765625 94.644531 100.132812 95.367188 100.429688 C 96.085938 100.726562 96.828125 100.953125 97.59375 101.105469 C 98.359375 101.257812 99.128906 101.332031 99.910156 101.332031 C 100.6875 101.332031 101.460938 101.257812 102.226562 101.105469 C 102.992188 100.953125 103.734375 100.726562 104.453125 100.429688 C 105.175781 100.132812 105.859375 99.765625 106.507812 99.332031 C 107.15625 98.898438 107.753906 98.40625 108.304688 97.855469 C 108.855469 97.304688 109.347656 96.703125 109.78125 96.054688 C 110.214844 95.410156 110.582031 94.722656 110.878906 94.003906 C 111.179688 93.285156 111.402344 92.542969 111.554688 91.777344 C 111.707031 91.011719 111.785156 90.238281 111.785156 89.460938 C 111.785156 88.679688 111.707031 87.910156 111.554688 87.144531 C 111.402344 86.378906 111.179688 85.636719 110.878906 84.917969 C 110.582031 84.195312 110.214844 83.511719 109.78125 82.863281 C 109.347656 82.214844 108.855469 81.617188 108.304688 81.066406 C 107.753906 80.511719 107.15625 80.019531 106.507812 79.589844 C 105.859375 79.15625 105.175781 78.789062 104.453125 78.492188 C 103.734375 78.191406 102.992188 77.96875 102.226562 77.816406 C 101.460938 77.664062 100.6875 77.585938 99.910156 77.585938 C 99.128906 77.585938 98.359375 77.664062 97.59375 77.816406 C 96.828125 77.96875 96.085938 78.191406 95.367188 78.492188 C 94.644531 78.789062 93.960938 79.15625 93.3125 79.589844 C 92.664062 80.019531 92.066406 80.511719 91.511719 81.066406 C 90.960938 81.617188 90.46875 82.214844 90.035156 82.863281 C 89.601562 83.511719 89.238281 84.195312 88.9375 84.917969 C 88.640625 85.636719 88.414062 86.378906 88.261719 87.144531 C 88.113281 87.910156 88.035156 88.679688 88.035156 89.460938 Z M 88.035156 89.460938 " fill-opacity="1" fill-rule="nonzero"/></svg>