<svg xmlns="http://www.w3.org/2000/svg" xmlns:xlink="http://www.w3.org/1999/xlink" width="500" zoomAndPan="magnify" viewBox="0 0 375 374.999991" height="500" preserveAspectRatio="xMidYMid meet" version="1.0"><defs><clipPath id="64440920d4"><path d="M 37.5 108.410156 L 337.5 108.410156 L 337.5 266.660156 L 37.5 266.660156 Z M 37.5 108.410156 " clip-rule="nonzero"/></clipPath><clipPath id="457d958bcd"><path d="M 337.5 187.535156 C 337.5 188.824219 337.441406 190.117188 337.320312 191.40625 C 337.199219 192.695312 337.019531 193.984375 336.777344 195.269531 C 336.535156 196.554688 336.238281 197.835938 335.875 199.113281 C 335.515625 200.390625 335.097656 201.660156 334.617188 202.925781 C 334.140625 204.195312 333.601562 205.453125 333.003906 206.707031 C 332.40625 207.957031 331.753906 209.203125 331.039062 210.4375 C 330.328125 211.675781 329.558594 212.898438 328.730469 214.117188 C 327.90625 215.332031 327.019531 216.535156 326.082031 217.730469 C 325.140625 218.921875 324.148438 220.101562 323.097656 221.269531 C 322.046875 222.4375 320.945312 223.589844 319.789062 224.726562 C 318.632812 225.867188 317.421875 226.992188 316.160156 228.097656 C 314.898438 229.207031 313.585938 230.296875 312.21875 231.371094 C 310.855469 232.445312 309.445312 233.5 307.980469 234.535156 C 306.519531 235.574219 305.007812 236.589844 303.453125 237.589844 C 301.894531 238.585938 300.292969 239.566406 298.644531 240.523438 C 296.992188 241.476562 295.300781 242.414062 293.566406 243.328125 C 291.832031 244.238281 290.054688 245.128906 288.234375 245.996094 C 286.414062 246.863281 284.554688 247.707031 282.660156 248.527344 C 280.761719 249.34375 278.828125 250.140625 276.855469 250.910156 C 274.882812 251.679688 272.875 252.421875 270.835938 253.140625 C 268.792969 253.855469 266.722656 254.546875 264.617188 255.210938 C 262.511719 255.875 260.375 256.511719 258.210938 257.121094 C 256.042969 257.726562 253.851562 258.308594 251.632812 258.859375 C 249.414062 259.414062 247.171875 259.9375 244.902344 260.429688 C 242.632812 260.925781 240.34375 261.390625 238.035156 261.824219 C 235.722656 262.257812 233.390625 262.664062 231.042969 263.039062 C 228.695312 263.414062 226.328125 263.757812 223.945312 264.070312 C 221.566406 264.386719 219.171875 264.667969 216.761719 264.921875 C 214.355469 265.171875 211.9375 265.394531 209.507812 265.582031 C 207.082031 265.773438 204.644531 265.929688 202.203125 266.054688 C 199.757812 266.183594 197.3125 266.277344 194.859375 266.339844 C 192.410156 266.40625 189.953125 266.4375 187.5 266.4375 C 185.046875 266.4375 182.589844 266.40625 180.140625 266.339844 C 177.6875 266.277344 175.242188 266.183594 172.796875 266.054688 C 170.355469 265.929688 167.917969 265.773438 165.492188 265.582031 C 163.0625 265.394531 160.644531 265.171875 158.238281 264.921875 C 155.828125 264.667969 153.433594 264.386719 151.054688 264.070312 C 148.671875 263.757812 146.304688 263.414062 143.957031 263.039062 C 141.609375 262.664062 139.277344 262.257812 136.964844 261.824219 C 134.65625 261.390625 132.367188 260.925781 130.097656 260.429688 C 127.828125 259.9375 125.585938 259.414062 123.367188 258.859375 C 121.148438 258.308594 118.957031 257.726562 116.789062 257.121094 C 114.625 256.511719 112.488281 255.875 110.382812 255.210938 C 108.277344 254.546875 106.207031 253.855469 104.164062 253.140625 C 102.125 252.421875 100.117188 251.679688 98.144531 250.910156 C 96.171875 250.140625 94.238281 249.34375 92.339844 248.527344 C 90.445312 247.707031 88.585938 246.863281 86.765625 245.996094 C 84.945312 245.128906 83.167969 244.238281 81.433594 243.328125 C 79.699219 242.414062 78.007812 241.476562 76.355469 240.523438 C 74.707031 239.566406 73.105469 238.585938 71.546875 237.589844 C 69.992188 236.589844 68.480469 235.574219 67.019531 234.535156 C 65.554688 233.5 64.144531 232.445312 62.78125 231.371094 C 61.414062 230.296875 60.101562 229.207031 58.839844 228.097656 C 57.578125 226.992188 56.367188 225.867188 55.210938 224.726562 C 54.054688 223.589844 52.953125 222.4375 51.902344 221.269531 C 50.851562 220.101562 49.859375 218.921875 48.917969 217.730469 C 47.980469 216.535156 47.09375 215.332031 46.269531 214.117188 C 45.441406 212.898438 44.671875 211.675781 43.957031 210.4375 C 43.246094 209.203125 42.589844 207.957031 41.996094 206.707031 C 41.398438 205.453125 40.859375 204.195312 40.382812 202.925781 C 39.902344 201.660156 39.484375 200.390625 39.125 199.113281 C 38.761719 197.835938 38.464844 196.554688 38.222656 195.269531 C 37.980469 193.984375 37.800781 192.695312 37.679688 191.40625 C 37.558594 190.117188 37.5 188.824219 37.5 187.535156 C 37.5 186.242188 37.558594 184.953125 37.679688 183.664062 C 37.800781 182.371094 37.980469 181.085938 38.222656 179.800781 C 38.464844 178.515625 38.761719 177.234375 39.125 175.957031 C 39.484375 174.679688 39.902344 173.40625 40.382812 172.140625 C 40.859375 170.875 41.398438 169.613281 41.996094 168.363281 C 42.589844 167.109375 43.246094 165.867188 43.957031 164.628906 C 44.671875 163.394531 45.441406 162.167969 46.269531 160.953125 C 47.09375 159.738281 47.980469 158.53125 48.917969 157.339844 C 49.859375 156.148438 50.851562 154.964844 51.902344 153.800781 C 52.953125 152.632812 54.054688 151.480469 55.210938 150.339844 C 56.367188 149.199219 57.578125 148.078125 58.839844 146.96875 C 60.101562 145.863281 61.414062 144.773438 62.78125 143.699219 C 64.144531 142.625 65.554688 141.570312 67.019531 140.53125 C 68.480469 139.496094 69.992188 138.476562 71.546875 137.480469 C 73.105469 136.480469 74.707031 135.503906 76.355469 134.546875 C 78.007812 133.589844 79.699219 132.65625 81.433594 131.742188 C 83.167969 130.828125 84.945312 129.9375 86.765625 129.070312 C 88.585938 128.203125 90.445312 127.359375 92.339844 126.542969 C 94.238281 125.722656 96.171875 124.929688 98.144531 124.160156 C 100.117188 123.390625 102.125 122.648438 104.164062 121.929688 C 106.207031 121.210938 108.277344 120.519531 110.382812 119.855469 C 112.488281 119.195312 114.625 118.558594 116.789062 117.949219 C 118.957031 117.339844 121.148438 116.757812 123.367188 116.207031 C 125.585938 115.65625 127.828125 115.132812 130.097656 114.636719 C 132.367188 114.144531 134.65625 113.679688 136.964844 113.246094 C 139.277344 112.808594 141.609375 112.402344 143.957031 112.03125 C 146.304688 111.65625 148.671875 111.308594 151.054688 110.996094 C 153.433594 110.683594 155.828125 110.398438 158.238281 110.148438 C 160.644531 109.894531 163.0625 109.675781 165.492188 109.484375 C 167.917969 109.296875 170.355469 109.136719 172.796875 109.011719 C 175.242188 108.886719 177.6875 108.789062 180.140625 108.726562 C 182.589844 108.664062 185.046875 108.632812 187.5 108.632812 C 189.953125 108.632812 192.410156 108.664062 194.859375 108.726562 C 197.3125 108.789062 199.757812 108.886719 202.203125 109.011719 C 204.644531 109.136719 207.082031 109.296875 209.507812 109.484375 C 211.9375 109.675781 214.355469 109.894531 216.761719 110.148438 C 219.171875 110.398438 221.566406 110.683594 223.945312 110.996094 C 226.328125 111.308594 228.695312 111.65625 231.042969 112.03125 C 233.390625 112.402344 235.722656 112.808594 238.035156 113.246094 C 240.34375 113.679688 242.632812 114.144531 244.902344 114.636719 C 247.171875 115.132812 249.414062 115.65625 251.632812 116.207031 C 253.851562 116.757812 256.042969 117.339844 258.210938 117.949219 C 260.375 118.558594 262.511719 119.195312 264.617188 119.855469 C 266.722656 120.519531 268.792969 121.210938 270.835938 121.929688 C 272.875 122.648438 274.882812 123.390625 276.855469 124.160156 C 278.828125 124.929688 280.761719 125.722656 282.660156 126.542969 C 284.554688 127.359375 286.414062 128.203125 288.234375 129.070312 C 290.054688 129.9375 291.832031 130.828125 293.566406 131.742188 C 295.300781 132.65625 296.992188 133.589844 298.644531 134.546875 C 300.292969 135.503906 301.894531 136.480469 303.453125 137.480469 C 305.007812 138.476562 306.519531 139.496094 307.980469 140.53125 C 309.445312 141.570312 310.855469 142.625 312.21875 143.699219 C 313.585938 144.773438 314.898438 145.863281 316.160156 146.96875 C 317.421875 148.078125 318.632812 149.199219 319.789062 150.339844 C 320.945312 151.480469 322.046875 152.632812 323.097656 153.800781 C 324.148438 154.964844 325.140625 156.148438 326.082031 157.339844 C 327.019531 158.53125 327.90625 159.738281 328.730469 160.953125 C 329.558594 162.167969 330.328125 163.394531 331.042969 164.628906 C 331.753906 165.867188 332.40625 167.109375 333.003906 168.363281 C 333.601562 169.613281 334.140625 170.875 334.617188 172.140625 C 335.097656 173.40625 335.515625 174.679688 335.875 175.957031 C 336.238281 177.234375 336.535156 178.515625 336.777344 179.800781 C 337.019531 181.085938 337.199219 182.371094 337.320312 183.664062 C 337.441406 184.953125 337.5 186.242188 337.5 187.535156 Z M 337.5 187.535156 " clip-rule="nonzero"/></clipPath><radialGradient gradientTransform="matrix(0.999778, 0, 0, 1.000222, 127.106248, 204.672165)" gradientUnits="userSpaceOnUse" r="197.032189" cx="0.454022" id="fb961bce65" cy="-68.276922" fx="0.454022" fy="-68.276922"><stop stop-opacity="1" stop-color="rgb(99.725342%, 99.772644%, 99.839783%)" offset="0"/><stop stop-opacity="1" stop-color="rgb(99.176025%, 99.319458%, 99.520874%)" offset="0.00390625"/><stop stop-opacity="1" stop-color="rgb(98.628235%, 98.866272%, 99.201965%)" offset="0.0078125"/><stop stop-opacity="1" stop-color="rgb(98.078918%, 98.413086%, 98.883057%)" offset="0.0117188"/><stop stop-opacity="1" stop-color="rgb(97.531128%, 97.9599%, 98.564148%)" offset="0.015625"/><stop stop-opacity="1" stop-color="rgb(96.981812%, 97.506714%, 98.245239%)" offset="0.0195312"/><stop stop-opacity="1" stop-color="rgb(96.434021%, 97.053528%, 97.926331%)" offset="0.0234375"/><stop stop-opacity="1" stop-color="rgb(95.88623%, 96.600342%, 97.607422%)" offset="0.0273438"/><stop stop-opacity="1" stop-color="rgb(95.336914%, 96.147156%, 97.288513%)" offset="0.03125"/><stop stop-opacity="1" stop-color="rgb(94.789124%, 95.69397%, 96.97113%)" offset="0.0351562"/><stop stop-opacity="1" stop-color="rgb(94.239807%, 95.240784%, 96.652222%)" offset="0.0390625"/><stop stop-opacity="1" stop-color="rgb(93.692017%, 94.787598%, 96.333313%)" offset="0.0429688"/><stop stop-opacity="1" stop-color="rgb(93.1427%, 94.334412%, 96.014404%)" offset="0.046875"/><stop stop-opacity="1" stop-color="rgb(92.59491%, 93.881226%, 95.695496%)" offset="0.0507812"/><stop stop-opacity="1" stop-color="rgb(92.047119%, 93.42804%, 95.376587%)" offset="0.0546875"/><stop stop-opacity="1" stop-color="rgb(91.497803%, 92.974854%, 95.057678%)" offset="0.0585938"/><stop stop-opacity="1" stop-color="rgb(90.950012%, 92.521667%, 94.73877%)" offset="0.0625"/><stop stop-opacity="1" stop-color="rgb(90.400696%, 92.068481%, 94.419861%)" offset="0.0664062"/><stop stop-opacity="1" stop-color="rgb(89.852905%, 91.615295%, 94.100952%)" offset="0.0703125"/><stop stop-opacity="1" stop-color="rgb(89.303589%, 91.162109%, 93.783569%)" offset="0.0742188"/><stop stop-opacity="1" stop-color="rgb(88.755798%, 90.708923%, 93.464661%)" offset="0.078125"/><stop stop-opacity="1" stop-color="rgb(88.208008%, 90.255737%, 93.145752%)" offset="0.0820312"/><stop stop-opacity="1" stop-color="rgb(87.658691%, 89.802551%, 92.826843%)" offset="0.0859375"/><stop stop-opacity="1" stop-color="rgb(87.110901%, 89.349365%, 92.507935%)" offset="0.0898438"/><stop stop-opacity="1" stop-color="rgb(86.561584%, 88.897705%, 92.189026%)" offset="0.09375"/><stop stop-opacity="1" stop-color="rgb(86.013794%, 88.444519%, 91.870117%)" offset="0.0976562"/><stop stop-opacity="1" stop-color="rgb(85.464478%, 87.991333%, 91.551208%)" offset="0.101562"/><stop stop-opacity="1" stop-color="rgb(84.916687%, 87.538147%, 91.2323%)" offset="0.105469"/><stop stop-opacity="1" stop-color="rgb(84.368896%, 87.084961%, 90.914917%)" offset="0.109375"/><stop stop-opacity="1" stop-color="rgb(83.81958%, 86.631775%, 90.596008%)" offset="0.113281"/><stop stop-opacity="1" stop-color="rgb(83.27179%, 86.178589%, 90.2771%)" offset="0.117188"/><stop stop-opacity="1" stop-color="rgb(82.722473%, 85.725403%, 89.958191%)" offset="0.121094"/><stop stop-opacity="1" stop-color="rgb(82.174683%, 85.272217%, 89.639282%)" offset="0.125"/><stop stop-opacity="1" stop-color="rgb(81.626892%, 84.819031%, 89.320374%)" offset="0.128906"/><stop stop-opacity="1" stop-color="rgb(81.077576%, 84.365845%, 89.001465%)" offset="0.132812"/><stop stop-opacity="1" stop-color="rgb(80.529785%, 83.912659%, 88.682556%)" offset="0.136719"/><stop stop-opacity="1" stop-color="rgb(79.980469%, 83.459473%, 88.363647%)" offset="0.140625"/><stop stop-opacity="1" stop-color="rgb(79.432678%, 83.006287%, 88.044739%)" offset="0.144531"/><stop stop-opacity="1" stop-color="rgb(78.883362%, 82.553101%, 87.727356%)" offset="0.148438"/><stop stop-opacity="1" stop-color="rgb(78.335571%, 82.099915%, 87.408447%)" offset="0.152344"/><stop stop-opacity="1" stop-color="rgb(77.787781%, 81.646729%, 87.089539%)" offset="0.15625"/><stop stop-opacity="1" stop-color="rgb(77.238464%, 81.193542%, 86.77063%)" offset="0.160156"/><stop stop-opacity="1" stop-color="rgb(76.690674%, 80.740356%, 86.451721%)" offset="0.164062"/><stop stop-opacity="1" stop-color="rgb(76.141357%, 80.28717%, 86.132812%)" offset="0.167969"/><stop stop-opacity="1" stop-color="rgb(75.593567%, 79.833984%, 85.813904%)" offset="0.171875"/><stop stop-opacity="1" stop-color="rgb(75.04425%, 79.380798%, 85.494995%)" offset="0.175781"/><stop stop-opacity="1" stop-color="rgb(74.49646%, 78.927612%, 85.176086%)" offset="0.179688"/><stop stop-opacity="1" stop-color="rgb(73.948669%, 78.474426%, 84.857178%)" offset="0.183594"/><stop stop-opacity="1" stop-color="rgb(73.399353%, 78.02124%, 84.539795%)" offset="0.1875"/><stop stop-opacity="1" stop-color="rgb(72.851562%, 77.56958%, 84.220886%)" offset="0.191406"/><stop stop-opacity="1" stop-color="rgb(72.302246%, 77.116394%, 83.901978%)" offset="0.195312"/><stop stop-opacity="1" stop-color="rgb(71.754456%, 76.663208%, 83.583069%)" offset="0.199219"/><stop stop-opacity="1" stop-color="rgb(71.205139%, 76.210022%, 83.26416%)" offset="0.203125"/><stop stop-opacity="1" stop-color="rgb(70.657349%, 75.756836%, 82.945251%)" offset="0.207031"/><stop stop-opacity="1" stop-color="rgb(70.109558%, 75.30365%, 82.626343%)" offset="0.210938"/><stop stop-opacity="1" stop-color="rgb(69.560242%, 74.850464%, 82.307434%)" offset="0.214844"/><stop stop-opacity="1" stop-color="rgb(69.012451%, 74.397278%, 81.988525%)" offset="0.21875"/><stop stop-opacity="1" stop-color="rgb(68.463135%, 73.944092%, 81.671143%)" offset="0.222656"/><stop stop-opacity="1" stop-color="rgb(67.915344%, 73.490906%, 81.352234%)" offset="0.226562"/><stop stop-opacity="1" stop-color="rgb(67.366028%, 73.03772%, 81.033325%)" offset="0.230469"/><stop stop-opacity="1" stop-color="rgb(66.818237%, 72.584534%, 80.714417%)" offset="0.234375"/><stop stop-opacity="1" stop-color="rgb(66.270447%, 72.131348%, 80.395508%)" offset="0.238281"/><stop stop-opacity="1" stop-color="rgb(65.72113%, 71.678162%, 80.076599%)" offset="0.242188"/><stop stop-opacity="1" stop-color="rgb(65.17334%, 71.224976%, 79.75769%)" offset="0.246094"/><stop stop-opacity="1" stop-color="rgb(64.624023%, 70.77179%, 79.438782%)" offset="0.25"/><stop stop-opacity="1" stop-color="rgb(64.076233%, 70.318604%, 79.119873%)" offset="0.253906"/><stop stop-opacity="1" stop-color="rgb(63.528442%, 69.865417%, 78.800964%)" offset="0.257812"/><stop stop-opacity="1" stop-color="rgb(62.979126%, 69.412231%, 78.483582%)" offset="0.261719"/><stop stop-opacity="1" stop-color="rgb(62.431335%, 68.959045%, 78.164673%)" offset="0.265625"/><stop stop-opacity="1" stop-color="rgb(61.882019%, 68.505859%, 77.845764%)" offset="0.269531"/><stop stop-opacity="1" stop-color="rgb(61.334229%, 68.052673%, 77.526855%)" offset="0.273438"/><stop stop-opacity="1" stop-color="rgb(60.784912%, 67.599487%, 77.207947%)" offset="0.277344"/><stop stop-opacity="1" stop-color="rgb(60.237122%, 67.146301%, 76.889038%)" offset="0.28125"/><stop stop-opacity="1" stop-color="rgb(59.689331%, 66.693115%, 76.570129%)" offset="0.285156"/><stop stop-opacity="1" stop-color="rgb(59.140015%, 66.241455%, 76.251221%)" offset="0.289062"/><stop stop-opacity="1" stop-color="rgb(58.592224%, 65.788269%, 75.932312%)" offset="0.292969"/><stop stop-opacity="1" stop-color="rgb(58.042908%, 65.335083%, 75.614929%)" offset="0.296875"/><stop stop-opacity="1" stop-color="rgb(57.495117%, 64.881897%, 75.296021%)" offset="0.300781"/><stop stop-opacity="1" stop-color="rgb(56.945801%, 64.428711%, 74.977112%)" offset="0.304688"/><stop stop-opacity="1" stop-color="rgb(56.39801%, 63.975525%, 74.658203%)" offset="0.308594"/><stop stop-opacity="1" stop-color="rgb(55.85022%, 63.522339%, 74.339294%)" offset="0.3125"/><stop stop-opacity="1" stop-color="rgb(55.300903%, 63.069153%, 74.020386%)" offset="0.316406"/><stop stop-opacity="1" stop-color="rgb(54.753113%, 62.615967%, 73.701477%)" offset="0.320312"/><stop stop-opacity="1" stop-color="rgb(54.203796%, 62.162781%, 73.382568%)" offset="0.324219"/><stop stop-opacity="1" stop-color="rgb(53.656006%, 61.709595%, 73.06366%)" offset="0.328125"/><stop stop-opacity="1" stop-color="rgb(53.106689%, 61.256409%, 72.744751%)" offset="0.332031"/><stop stop-opacity="1" stop-color="rgb(52.558899%, 60.803223%, 72.427368%)" offset="0.335938"/><stop stop-opacity="1" stop-color="rgb(52.011108%, 60.350037%, 72.108459%)" offset="0.339844"/><stop stop-opacity="1" stop-color="rgb(51.461792%, 59.896851%, 71.789551%)" offset="0.34375"/><stop stop-opacity="1" stop-color="rgb(50.914001%, 59.443665%, 71.470642%)" offset="0.347656"/><stop stop-opacity="1" stop-color="rgb(50.364685%, 58.990479%, 71.151733%)" offset="0.351562"/><stop stop-opacity="1" stop-color="rgb(49.816895%, 58.537292%, 70.832825%)" offset="0.355469"/><stop stop-opacity="1" stop-color="rgb(49.267578%, 58.084106%, 70.513916%)" offset="0.359375"/><stop stop-opacity="1" stop-color="rgb(48.719788%, 57.63092%, 70.195007%)" offset="0.363281"/><stop stop-opacity="1" stop-color="rgb(48.171997%, 57.177734%, 69.876099%)" offset="0.367188"/><stop stop-opacity="1" stop-color="rgb(47.622681%, 56.724548%, 69.55719%)" offset="0.371094"/><stop stop-opacity="1" stop-color="rgb(47.07489%, 56.271362%, 69.239807%)" offset="0.375"/><stop stop-opacity="1" stop-color="rgb(46.525574%, 55.818176%, 68.920898%)" offset="0.378906"/><stop stop-opacity="1" stop-color="rgb(45.977783%, 55.36499%, 68.60199%)" offset="0.382812"/><stop stop-opacity="1" stop-color="rgb(45.429993%, 54.91333%, 68.283081%)" offset="0.386719"/><stop stop-opacity="1" stop-color="rgb(44.880676%, 54.460144%, 67.964172%)" offset="0.390625"/><stop stop-opacity="1" stop-color="rgb(44.332886%, 54.006958%, 67.645264%)" offset="0.394531"/><stop stop-opacity="1" stop-color="rgb(43.783569%, 53.553772%, 67.326355%)" offset="0.398438"/><stop stop-opacity="1" stop-color="rgb(43.235779%, 53.100586%, 67.007446%)" offset="0.402344"/><stop stop-opacity="1" stop-color="rgb(42.686462%, 52.6474%, 66.688538%)" offset="0.40625"/><stop stop-opacity="1" stop-color="rgb(42.138672%, 52.194214%, 66.371155%)" offset="0.410156"/><stop stop-opacity="1" stop-color="rgb(41.590881%, 51.741028%, 66.052246%)" offset="0.414062"/><stop stop-opacity="1" stop-color="rgb(41.041565%, 51.287842%, 65.733337%)" offset="0.417969"/><stop stop-opacity="1" stop-color="rgb(40.493774%, 50.834656%, 65.414429%)" offset="0.421875"/><stop stop-opacity="1" stop-color="rgb(39.944458%, 50.38147%, 65.09552%)" offset="0.425781"/><stop stop-opacity="1" stop-color="rgb(39.396667%, 49.928284%, 64.776611%)" offset="0.429688"/><stop stop-opacity="1" stop-color="rgb(38.847351%, 49.475098%, 64.457703%)" offset="0.433594"/><stop stop-opacity="1" stop-color="rgb(38.299561%, 49.021912%, 64.138794%)" offset="0.4375"/><stop stop-opacity="1" stop-color="rgb(37.75177%, 48.568726%, 63.819885%)" offset="0.441406"/><stop stop-opacity="1" stop-color="rgb(37.202454%, 48.11554%, 63.500977%)" offset="0.445312"/><stop stop-opacity="1" stop-color="rgb(36.654663%, 47.662354%, 63.183594%)" offset="0.449219"/><stop stop-opacity="1" stop-color="rgb(36.105347%, 47.209167%, 62.864685%)" offset="0.453125"/><stop stop-opacity="1" stop-color="rgb(35.557556%, 46.755981%, 62.545776%)" offset="0.457031"/><stop stop-opacity="1" stop-color="rgb(35.00824%, 46.302795%, 62.226868%)" offset="0.460938"/><stop stop-opacity="1" stop-color="rgb(34.460449%, 45.849609%, 61.907959%)" offset="0.464844"/><stop stop-opacity="1" stop-color="rgb(33.912659%, 45.396423%, 61.58905%)" offset="0.46875"/><stop stop-opacity="1" stop-color="rgb(33.363342%, 44.943237%, 61.270142%)" offset="0.472656"/><stop stop-opacity="1" stop-color="rgb(32.815552%, 44.490051%, 60.951233%)" offset="0.476562"/><stop stop-opacity="1" stop-color="rgb(32.266235%, 44.036865%, 60.632324%)" offset="0.480469"/><stop stop-opacity="1" stop-color="rgb(31.718445%, 43.585205%, 60.314941%)" offset="0.484375"/><stop stop-opacity="1" stop-color="rgb(31.170654%, 43.132019%, 59.996033%)" offset="0.488281"/><stop stop-opacity="1" stop-color="rgb(30.621338%, 42.678833%, 59.677124%)" offset="0.492188"/><stop stop-opacity="1" stop-color="rgb(30.073547%, 42.225647%, 59.358215%)" offset="0.496094"/><stop stop-opacity="1" stop-color="rgb(29.736328%, 41.882324%, 59.016418%)" offset="0.5"/><stop stop-opacity="1" stop-color="rgb(29.60968%, 41.648865%, 58.651733%)" offset="0.503906"/><stop stop-opacity="1" stop-color="rgb(29.484558%, 41.416931%, 58.287048%)" offset="0.507812"/><stop stop-opacity="1" stop-color="rgb(29.359436%, 41.183472%, 57.922363%)" offset="0.511719"/><stop stop-opacity="1" stop-color="rgb(29.232788%, 40.951538%, 57.556152%)" offset="0.515625"/><stop stop-opacity="1" stop-color="rgb(29.107666%, 40.718079%, 57.191467%)" offset="0.519531"/><stop stop-opacity="1" stop-color="rgb(28.981018%, 40.486145%, 56.826782%)" offset="0.523438"/><stop stop-opacity="1" stop-color="rgb(28.855896%, 40.252686%, 56.462097%)" offset="0.527344"/><stop stop-opacity="1" stop-color="rgb(28.729248%, 40.019226%, 56.097412%)" offset="0.53125"/><stop stop-opacity="1" stop-color="rgb(28.604126%, 39.787292%, 55.732727%)" offset="0.535156"/><stop stop-opacity="1" stop-color="rgb(28.477478%, 39.553833%, 55.368042%)" offset="0.539062"/><stop stop-opacity="1" stop-color="rgb(28.352356%, 39.321899%, 55.003357%)" offset="0.542969"/><stop stop-opacity="1" stop-color="rgb(28.227234%, 39.08844%, 54.638672%)" offset="0.546875"/><stop stop-opacity="1" stop-color="rgb(28.100586%, 38.856506%, 54.272461%)" offset="0.550781"/><stop stop-opacity="1" stop-color="rgb(27.975464%, 38.623047%, 53.907776%)" offset="0.554688"/><stop stop-opacity="1" stop-color="rgb(27.848816%, 38.389587%, 53.543091%)" offset="0.558594"/><stop stop-opacity="1" stop-color="rgb(27.723694%, 38.157654%, 53.178406%)" offset="0.5625"/><stop stop-opacity="1" stop-color="rgb(27.597046%, 37.924194%, 52.813721%)" offset="0.566406"/><stop stop-opacity="1" stop-color="rgb(27.471924%, 37.692261%, 52.449036%)" offset="0.570312"/><stop stop-opacity="1" stop-color="rgb(27.346802%, 37.458801%, 52.084351%)" offset="0.574219"/><stop stop-opacity="1" stop-color="rgb(27.220154%, 37.226868%, 51.719666%)" offset="0.578125"/><stop stop-opacity="1" stop-color="rgb(27.095032%, 36.993408%, 51.35498%)" offset="0.582031"/><stop stop-opacity="1" stop-color="rgb(26.968384%, 36.759949%, 50.990295%)" offset="0.585938"/><stop stop-opacity="1" stop-color="rgb(26.843262%, 36.528015%, 50.624084%)" offset="0.589844"/><stop stop-opacity="1" stop-color="rgb(26.716614%, 36.294556%, 50.259399%)" offset="0.59375"/><stop stop-opacity="1" stop-color="rgb(26.591492%, 36.062622%, 49.894714%)" offset="0.597656"/><stop stop-opacity="1" stop-color="rgb(26.46637%, 35.829163%, 49.530029%)" offset="0.601562"/><stop stop-opacity="1" stop-color="rgb(26.339722%, 35.595703%, 49.165344%)" offset="0.605469"/><stop stop-opacity="1" stop-color="rgb(26.2146%, 35.36377%, 48.800659%)" offset="0.609375"/><stop stop-opacity="1" stop-color="rgb(26.087952%, 35.13031%, 48.435974%)" offset="0.613281"/><stop stop-opacity="1" stop-color="rgb(25.96283%, 34.898376%, 48.071289%)" offset="0.617188"/><stop stop-opacity="1" stop-color="rgb(25.836182%, 34.664917%, 47.706604%)" offset="0.621094"/><stop stop-opacity="1" stop-color="rgb(25.71106%, 34.432983%, 47.340393%)" offset="0.625"/><stop stop-opacity="1" stop-color="rgb(25.585938%, 34.199524%, 46.975708%)" offset="0.628906"/><stop stop-opacity="1" stop-color="rgb(25.45929%, 33.966064%, 46.611023%)" offset="0.632812"/><stop stop-opacity="1" stop-color="rgb(25.334167%, 33.734131%, 46.246338%)" offset="0.636719"/><stop stop-opacity="1" stop-color="rgb(25.20752%, 33.500671%, 45.881653%)" offset="0.640625"/><stop stop-opacity="1" stop-color="rgb(25.082397%, 33.268738%, 45.516968%)" offset="0.644531"/><stop stop-opacity="1" stop-color="rgb(24.95575%, 33.035278%, 45.152283%)" offset="0.648438"/><stop stop-opacity="1" stop-color="rgb(24.830627%, 32.803345%, 44.787598%)" offset="0.652344"/><stop stop-opacity="1" stop-color="rgb(24.705505%, 32.569885%, 44.422913%)" offset="0.65625"/><stop stop-opacity="1" stop-color="rgb(24.578857%, 32.336426%, 44.058228%)" offset="0.660156"/><stop stop-opacity="1" stop-color="rgb(24.453735%, 32.104492%, 43.692017%)" offset="0.664062"/><stop stop-opacity="1" stop-color="rgb(24.327087%, 31.871033%, 43.327332%)" offset="0.667969"/><stop stop-opacity="1" stop-color="rgb(24.201965%, 31.639099%, 42.962646%)" offset="0.671875"/><stop stop-opacity="1" stop-color="rgb(24.075317%, 31.40564%, 42.597961%)" offset="0.675781"/><stop stop-opacity="1" stop-color="rgb(23.950195%, 31.173706%, 42.233276%)" offset="0.679688"/><stop stop-opacity="1" stop-color="rgb(23.823547%, 30.940247%, 41.868591%)" offset="0.683594"/><stop stop-opacity="1" stop-color="rgb(23.698425%, 30.706787%, 41.503906%)" offset="0.6875"/><stop stop-opacity="1" stop-color="rgb(23.573303%, 30.474854%, 41.139221%)" offset="0.691406"/><stop stop-opacity="1" stop-color="rgb(23.446655%, 30.241394%, 40.774536%)" offset="0.695312"/><stop stop-opacity="1" stop-color="rgb(23.321533%, 30.00946%, 40.409851%)" offset="0.699219"/><stop stop-opacity="1" stop-color="rgb(23.194885%, 29.776001%, 40.04364%)" offset="0.703125"/><stop stop-opacity="1" stop-color="rgb(23.069763%, 29.544067%, 39.678955%)" offset="0.707031"/><stop stop-opacity="1" stop-color="rgb(22.943115%, 29.310608%, 39.31427%)" offset="0.710938"/><stop stop-opacity="1" stop-color="rgb(22.817993%, 29.077148%, 38.949585%)" offset="0.714844"/><stop stop-opacity="1" stop-color="rgb(22.692871%, 28.845215%, 38.5849%)" offset="0.71875"/><stop stop-opacity="1" stop-color="rgb(22.566223%, 28.611755%, 38.220215%)" offset="0.722656"/><stop stop-opacity="1" stop-color="rgb(22.441101%, 28.379822%, 37.85553%)" offset="0.726562"/><stop stop-opacity="1" stop-color="rgb(22.314453%, 28.146362%, 37.490845%)" offset="0.730469"/><stop stop-opacity="1" stop-color="rgb(22.189331%, 27.912903%, 37.12616%)" offset="0.734375"/><stop stop-opacity="1" stop-color="rgb(22.062683%, 27.680969%, 36.759949%)" offset="0.738281"/><stop stop-opacity="1" stop-color="rgb(21.937561%, 27.44751%, 36.395264%)" offset="0.742188"/><stop stop-opacity="1" stop-color="rgb(21.812439%, 27.215576%, 36.030579%)" offset="0.746094"/><stop stop-opacity="1" stop-color="rgb(21.685791%, 26.982117%, 35.665894%)" offset="0.75"/><stop stop-opacity="1" stop-color="rgb(21.560669%, 26.750183%, 35.301208%)" offset="0.753906"/><stop stop-opacity="1" stop-color="rgb(21.434021%, 26.516724%, 34.936523%)" offset="0.757812"/><stop stop-opacity="1" stop-color="rgb(21.308899%, 26.283264%, 34.571838%)" offset="0.761719"/><stop stop-opacity="1" stop-color="rgb(21.182251%, 26.051331%, 34.207153%)" offset="0.765625"/><stop stop-opacity="1" stop-color="rgb(21.057129%, 25.817871%, 33.842468%)" offset="0.769531"/><stop stop-opacity="1" stop-color="rgb(20.932007%, 25.585938%, 33.477783%)" offset="0.773438"/><stop stop-opacity="1" stop-color="rgb(20.805359%, 25.352478%, 33.111572%)" offset="0.777344"/><stop stop-opacity="1" stop-color="rgb(20.680237%, 25.120544%, 32.746887%)" offset="0.78125"/><stop stop-opacity="1" stop-color="rgb(20.553589%, 24.887085%, 32.382202%)" offset="0.785156"/><stop stop-opacity="1" stop-color="rgb(20.428467%, 24.653625%, 32.017517%)" offset="0.789062"/><stop stop-opacity="1" stop-color="rgb(20.301819%, 24.421692%, 31.652832%)" offset="0.792969"/><stop stop-opacity="1" stop-color="rgb(20.176697%, 24.188232%, 31.288147%)" offset="0.796875"/><stop stop-opacity="1" stop-color="rgb(20.051575%, 23.956299%, 30.923462%)" offset="0.800781"/><stop stop-opacity="1" stop-color="rgb(19.924927%, 23.722839%, 30.558777%)" offset="0.804688"/><stop stop-opacity="1" stop-color="rgb(19.799805%, 23.490906%, 30.194092%)" offset="0.808594"/><stop stop-opacity="1" stop-color="rgb(19.673157%, 23.257446%, 29.827881%)" offset="0.8125"/><stop stop-opacity="1" stop-color="rgb(19.548035%, 23.023987%, 29.463196%)" offset="0.816406"/><stop stop-opacity="1" stop-color="rgb(19.421387%, 22.792053%, 29.098511%)" offset="0.820312"/><stop stop-opacity="1" stop-color="rgb(19.296265%, 22.558594%, 28.733826%)" offset="0.824219"/><stop stop-opacity="1" stop-color="rgb(19.171143%, 22.32666%, 28.369141%)" offset="0.828125"/><stop stop-opacity="1" stop-color="rgb(19.044495%, 22.093201%, 28.004456%)" offset="0.832031"/><stop stop-opacity="1" stop-color="rgb(18.919373%, 21.861267%, 27.639771%)" offset="0.835938"/><stop stop-opacity="1" stop-color="rgb(18.792725%, 21.627808%, 27.275085%)" offset="0.839844"/><stop stop-opacity="1" stop-color="rgb(18.667603%, 21.394348%, 26.9104%)" offset="0.84375"/><stop stop-opacity="1" stop-color="rgb(18.540955%, 21.162415%, 26.545715%)" offset="0.847656"/><stop stop-opacity="1" stop-color="rgb(18.415833%, 20.928955%, 26.179504%)" offset="0.851562"/><stop stop-opacity="1" stop-color="rgb(18.289185%, 20.697021%, 25.814819%)" offset="0.855469"/><stop stop-opacity="1" stop-color="rgb(18.164062%, 20.463562%, 25.450134%)" offset="0.859375"/><stop stop-opacity="1" stop-color="rgb(18.03894%, 20.230103%, 25.085449%)" offset="0.863281"/><stop stop-opacity="1" stop-color="rgb(17.912292%, 19.998169%, 24.720764%)" offset="0.867188"/><stop stop-opacity="1" stop-color="rgb(17.78717%, 19.764709%, 24.356079%)" offset="0.871094"/><stop stop-opacity="1" stop-color="rgb(17.660522%, 19.532776%, 23.991394%)" offset="0.875"/><stop stop-opacity="1" stop-color="rgb(17.5354%, 19.299316%, 23.626709%)" offset="0.878906"/><stop stop-opacity="1" stop-color="rgb(17.408752%, 19.067383%, 23.262024%)" offset="0.882812"/><stop stop-opacity="1" stop-color="rgb(17.28363%, 18.833923%, 22.897339%)" offset="0.886719"/><stop stop-opacity="1" stop-color="rgb(17.158508%, 18.600464%, 22.531128%)" offset="0.890625"/><stop stop-opacity="1" stop-color="rgb(17.03186%, 18.36853%, 22.166443%)" offset="0.894531"/><stop stop-opacity="1" stop-color="rgb(16.906738%, 18.135071%, 21.801758%)" offset="0.898438"/><stop stop-opacity="1" stop-color="rgb(16.78009%, 17.903137%, 21.437073%)" offset="0.902344"/><stop stop-opacity="1" stop-color="rgb(16.654968%, 17.669678%, 21.072388%)" offset="0.90625"/><stop stop-opacity="1" stop-color="rgb(16.52832%, 17.437744%, 20.707703%)" offset="0.910156"/><stop stop-opacity="1" stop-color="rgb(16.403198%, 17.204285%, 20.343018%)" offset="0.914062"/><stop stop-opacity="1" stop-color="rgb(16.278076%, 16.970825%, 19.978333%)" offset="0.917969"/><stop stop-opacity="1" stop-color="rgb(16.151428%, 16.738892%, 19.613647%)" offset="0.921875"/><stop stop-opacity="1" stop-color="rgb(16.026306%, 16.505432%, 19.247437%)" offset="0.925781"/><stop stop-opacity="1" stop-color="rgb(15.899658%, 16.273499%, 18.882751%)" offset="0.929688"/><stop stop-opacity="1" stop-color="rgb(15.774536%, 16.040039%, 18.518066%)" offset="0.933594"/><stop stop-opacity="1" stop-color="rgb(15.647888%, 15.808105%, 18.153381%)" offset="0.9375"/><stop stop-opacity="1" stop-color="rgb(15.522766%, 15.574646%, 17.788696%)" offset="0.941406"/><stop stop-opacity="1" stop-color="rgb(15.397644%, 15.341187%, 17.424011%)" offset="0.945312"/><stop stop-opacity="1" stop-color="rgb(15.270996%, 15.109253%, 17.059326%)" offset="0.949219"/><stop stop-opacity="1" stop-color="rgb(15.145874%, 14.875793%, 16.694641%)" offset="0.953125"/><stop stop-opacity="1" stop-color="rgb(15.019226%, 14.64386%, 16.329956%)" offset="0.957031"/><stop stop-opacity="1" stop-color="rgb(14.894104%, 14.4104%, 15.965271%)" offset="0.960938"/><stop stop-opacity="1" stop-color="rgb(14.767456%, 14.178467%, 15.59906%)" offset="0.964844"/><stop stop-opacity="1" stop-color="rgb(14.642334%, 13.945007%, 15.234375%)" offset="0.96875"/><stop stop-opacity="1" stop-color="rgb(14.517212%, 13.711548%, 14.86969%)" offset="0.972656"/><stop stop-opacity="1" stop-color="rgb(14.390564%, 13.479614%, 14.505005%)" offset="0.976562"/><stop stop-opacity="1" stop-color="rgb(14.265442%, 13.246155%, 14.14032%)" offset="0.980469"/><stop stop-opacity="1" stop-color="rgb(14.138794%, 13.014221%, 13.775635%)" offset="0.984375"/><stop stop-opacity="1" stop-color="rgb(14.013672%, 12.780762%, 13.41095%)" offset="0.988281"/><stop stop-opacity="1" stop-color="rgb(13.887024%, 12.547302%, 13.046265%)" offset="0.992188"/><stop stop-opacity="1" stop-color="rgb(13.761902%, 12.315369%, 12.68158%)" offset="0.996094"/><stop stop-opacity="1" stop-color="rgb(13.699341%, 12.199402%, 12.5%)" offset="1"/></radialGradient></defs><g clip-path="url(#64440920d4)"><g clip-path="url(#457d958bcd)"><path fill="url(#fb961bce65)" d="M 37.5 108.632812 L 37.5 266.4375 L 337.5 266.4375 L 337.5 108.632812 Z M 37.5 108.632812 " fill-rule="nonzero"/></g></g><path fill="#6181b6" d="M 331.640625 187.535156 C 331.640625 188.730469 331.582031 189.925781 331.46875 191.117188 C 331.351562 192.3125 331.175781 193.503906 330.945312 194.691406 C 330.714844 195.882812 330.425781 197.070312 330.082031 198.25 C 329.734375 199.433594 329.332031 200.609375 328.871094 201.785156 C 328.410156 202.957031 327.894531 204.121094 327.320312 205.28125 C 326.746094 206.441406 326.117188 207.59375 325.433594 208.738281 C 324.75 209.878906 324.007812 211.015625 323.214844 212.140625 C 322.421875 213.265625 321.570312 214.382812 320.667969 215.484375 C 319.765625 216.589844 318.808594 217.683594 317.800781 218.761719 C 316.792969 219.84375 315.734375 220.910156 314.621094 221.964844 C 313.507812 223.019531 312.347656 224.058594 311.132812 225.085938 C 309.921875 226.109375 308.660156 227.121094 307.347656 228.113281 C 306.039062 229.105469 304.679688 230.082031 303.273438 231.042969 C 301.871094 232.003906 300.417969 232.945312 298.921875 233.871094 C 297.425781 234.792969 295.886719 235.699219 294.300781 236.585938 C 292.71875 237.46875 291.089844 238.335938 289.421875 239.179688 C 287.753906 240.027344 286.046875 240.851562 284.300781 241.652344 C 282.550781 242.457031 280.765625 243.238281 278.941406 243.996094 C 277.117188 244.753906 275.257812 245.488281 273.363281 246.199219 C 271.46875 246.914062 269.542969 247.601562 267.582031 248.265625 C 265.617188 248.929688 263.625 249.566406 261.601562 250.183594 C 259.578125 250.796875 257.527344 251.386719 255.449219 251.949219 C 253.367188 252.511719 251.261719 253.050781 249.128906 253.5625 C 246.996094 254.074219 244.839844 254.558594 242.660156 255.015625 C 240.480469 255.472656 238.28125 255.902344 236.058594 256.304688 C 233.839844 256.707031 231.597656 257.082031 229.34375 257.429688 C 227.085938 257.777344 224.8125 258.09375 222.523438 258.386719 C 220.234375 258.675781 217.933594 258.9375 215.621094 259.171875 C 213.308594 259.402344 210.984375 259.609375 208.648438 259.785156 C 206.316406 259.960938 203.976562 260.105469 201.628906 260.222656 C 199.28125 260.339844 196.929688 260.425781 194.574219 260.488281 C 192.214844 260.546875 189.859375 260.574219 187.5 260.574219 C 185.140625 260.574219 182.785156 260.546875 180.425781 260.488281 C 178.070312 260.425781 175.71875 260.339844 173.371094 260.222656 C 171.023438 260.105469 168.683594 259.960938 166.351562 259.785156 C 164.015625 259.609375 161.691406 259.402344 159.378906 259.171875 C 157.066406 258.9375 154.765625 258.675781 152.476562 258.386719 C 150.1875 258.09375 147.914062 257.777344 145.65625 257.429688 C 143.402344 257.082031 141.160156 256.707031 138.941406 256.304688 C 136.71875 255.902344 134.519531 255.472656 132.339844 255.015625 C 130.160156 254.558594 128.003906 254.074219 125.871094 253.5625 C 123.738281 253.050781 121.632812 252.511719 119.550781 251.949219 C 117.472656 251.386719 115.421875 250.796875 113.398438 250.183594 C 111.375 249.566406 109.382812 248.929688 107.417969 248.265625 C 105.457031 247.601562 103.53125 246.914062 101.636719 246.199219 C 99.742188 245.488281 97.882812 244.753906 96.058594 243.996094 C 94.234375 243.238281 92.449219 242.457031 90.699219 241.652344 C 88.953125 240.851562 87.246094 240.027344 85.578125 239.179688 C 83.910156 238.335938 82.28125 237.46875 80.699219 236.585938 C 79.113281 235.699219 77.574219 234.792969 76.078125 233.871094 C 74.582031 232.945312 73.128906 232.003906 71.726562 231.042969 C 70.320312 230.082031 68.960938 229.105469 67.652344 228.113281 C 66.339844 227.121094 65.078125 226.109375 63.867188 225.085938 C 62.652344 224.058594 61.492188 223.019531 60.378906 221.964844 C 59.265625 220.910156 58.207031 219.84375 57.199219 218.761719 C 56.191406 217.683594 55.234375 216.589844 54.332031 215.484375 C 53.429688 214.382812 52.578125 213.265625 51.785156 212.140625 C 50.992188 211.015625 50.25 209.878906 49.566406 208.738281 C 48.882812 207.59375 48.253906 206.441406 47.679688 205.28125 C 47.105469 204.121094 46.589844 202.957031 46.128906 201.785156 C 45.667969 200.609375 45.265625 199.433594 44.917969 198.25 C 44.574219 197.070312 44.285156 195.882812 44.054688 194.691406 C 43.820312 193.503906 43.648438 192.3125 43.53125 191.117188 C 43.417969 189.925781 43.359375 188.730469 43.359375 187.535156 C 43.359375 186.339844 43.417969 185.144531 43.53125 183.949219 C 43.648438 182.757812 43.820312 181.566406 44.054688 180.375 C 44.285156 179.183594 44.574219 178 44.917969 176.816406 C 45.265625 175.632812 45.667969 174.457031 46.128906 173.285156 C 46.589844 172.113281 47.105469 170.945312 47.679688 169.785156 C 48.253906 168.628906 48.882812 167.476562 49.566406 166.332031 C 50.25 165.1875 50.992188 164.054688 51.785156 162.925781 C 52.578125 161.800781 53.429688 160.6875 54.332031 159.582031 C 55.234375 158.476562 56.191406 157.386719 57.199219 156.304688 C 58.207031 155.226562 59.265625 154.15625 60.378906 153.101562 C 61.492188 152.050781 62.652344 151.007812 63.867188 149.984375 C 65.078125 148.957031 66.339844 147.949219 67.652344 146.957031 C 68.960938 145.960938 70.320312 144.984375 71.726562 144.023438 C 73.128906 143.0625 74.582031 142.121094 76.078125 141.199219 C 77.574219 140.273438 79.113281 139.367188 80.699219 138.484375 C 82.28125 137.597656 83.910156 136.730469 85.578125 135.886719 C 87.246094 135.042969 88.953125 134.21875 90.699219 133.414062 C 92.449219 132.613281 94.234375 131.832031 96.058594 131.074219 C 97.882812 130.316406 99.742188 129.578125 101.636719 128.867188 C 103.53125 128.15625 105.457031 127.46875 107.417969 126.804688 C 109.382812 126.140625 111.375 125.5 113.398438 124.886719 C 115.421875 124.269531 117.472656 123.683594 119.550781 123.117188 C 121.632812 122.554688 123.738281 122.015625 125.871094 121.507812 C 128.003906 120.996094 130.160156 120.511719 132.339844 120.054688 C 134.519531 119.597656 136.71875 119.167969 138.941406 118.761719 C 141.160156 118.359375 143.402344 117.984375 145.65625 117.640625 C 147.914062 117.292969 150.1875 116.972656 152.476562 116.683594 C 154.765625 116.390625 157.066406 116.128906 159.378906 115.898438 C 161.691406 115.664062 164.015625 115.460938 166.351562 115.285156 C 168.683594 115.109375 171.023438 114.960938 173.371094 114.84375 C 175.71875 114.726562 178.070312 114.640625 180.425781 114.582031 C 182.785156 114.523438 185.140625 114.492188 187.5 114.492188 C 189.859375 114.492188 192.214844 114.523438 194.574219 114.582031 C 196.929688 114.640625 199.28125 114.726562 201.628906 114.84375 C 203.976562 114.960938 206.316406 115.109375 208.648438 115.285156 C 210.984375 115.460938 213.308594 115.664062 215.621094 115.898438 C 217.933594 116.128906 220.234375 116.390625 222.523438 116.683594 C 224.8125 116.972656 227.085938 117.292969 229.34375 117.640625 C 231.597656 117.984375 233.839844 118.359375 236.058594 118.761719 C 238.28125 119.167969 240.480469 119.597656 242.660156 120.054688 C 244.839844 120.511719 246.996094 120.996094 249.128906 121.507812 C 251.261719 122.015625 253.367188 122.554688 255.449219 123.117188 C 257.527344 123.683594 259.578125 124.269531 261.601562 124.886719 C 263.625 125.5 265.617188 126.140625 267.582031 126.804688 C 269.542969 127.46875 271.46875 128.15625 273.363281 128.867188 C 275.257812 129.578125 277.117188 130.316406 278.941406 131.074219 C 280.765625 131.832031 282.550781 132.613281 284.300781 133.414062 C 286.046875 134.21875 287.753906 135.042969 289.421875 135.886719 C 291.089844 136.730469 292.71875 137.597656 294.300781 138.484375 C 295.886719 139.367188 297.425781 140.273438 298.921875 141.199219 C 300.417969 142.121094 301.871094 143.0625 303.273438 144.023438 C 304.679688 144.984375 306.039062 145.960938 307.347656 146.957031 C 308.660156 147.949219 309.921875 148.957031 311.132812 149.984375 C 312.347656 151.007812 313.507812 152.050781 314.621094 153.101562 C 315.734375 154.15625 316.792969 155.226562 317.800781 156.304688 C 318.808594 157.386719 319.765625 158.476562 320.667969 159.582031 C 321.570312 160.6875 322.421875 161.800781 323.214844 162.925781 C 324.007812 164.054688 324.75 165.1875 325.433594 166.332031 C 326.117188 167.476562 326.746094 168.628906 327.320312 169.785156 C 327.894531 170.945312 328.410156 172.113281 328.871094 173.285156 C 329.332031 174.457031 329.734375 175.632812 330.082031 176.816406 C 330.425781 178 330.714844 179.183594 330.945312 180.375 C 331.179688 181.566406 331.351562 182.757812 331.46875 183.949219 C 331.582031 185.144531 331.640625 186.339844 331.640625 187.535156 Z M 331.640625 187.535156 " fill-opacity="1" fill-rule="nonzero"/><path fill="#ffffff" d="M 216.679688 211.214844 L 223.828125 174.402344 C 225.46875 166.078125 224.0625 159.867188 219.84375 155.996094 C 215.742188 152.246094 208.710938 150.367188 198.398438 150.367188 L 185.976562 150.367188 L 189.492188 132.078125 C 189.609375 131.375 189.492188 130.671875 189.023438 130.085938 C 188.554688 129.5 187.96875 129.265625 187.265625 129.265625 L 170.15625 129.265625 C 168.984375 129.265625 168.046875 130.085938 167.8125 131.140625 L 160.195312 170.183594 C 159.492188 165.726562 157.851562 161.976562 155.039062 158.925781 C 150 153.183594 142.148438 150.25 131.484375 150.25 L 98.554688 150.25 C 97.382812 150.25 96.445312 151.074219 96.210938 152.128906 L 80.859375 231.382812 C 80.742188 232.085938 80.859375 232.789062 81.328125 233.375 C 81.796875 233.960938 82.382812 234.195312 83.085938 234.195312 L 100.3125 234.195312 C 101.484375 234.195312 102.421875 233.375 102.65625 232.320312 L 106.40625 213.210938 L 119.179688 213.210938 C 125.859375 213.210938 131.601562 212.507812 135.9375 211.097656 C 140.507812 209.574219 144.609375 207.113281 148.242188 203.714844 C 151.171875 201.015625 153.632812 197.96875 155.507812 194.6875 L 152.460938 210.511719 C 152.34375 211.214844 152.460938 211.917969 152.929688 212.507812 C 153.398438 213.09375 153.984375 213.328125 154.6875 213.328125 L 171.796875 213.328125 C 172.96875 213.328125 173.90625 212.507812 174.140625 211.449219 L 182.578125 168.074219 L 194.296875 168.074219 C 199.335938 168.074219 200.742188 169.011719 201.210938 169.480469 C 201.5625 169.832031 202.265625 171.238281 201.445312 175.574219 L 194.648438 210.628906 C 194.53125 211.332031 194.648438 212.039062 195.117188 212.625 C 195.585938 213.210938 196.171875 213.445312 196.875 213.445312 L 214.453125 213.445312 C 215.507812 213.09375 216.445312 212.273438 216.679688 211.214844 Z M 137.460938 180.734375 C 136.40625 186.246094 134.414062 190.230469 131.484375 192.457031 C 128.554688 194.6875 123.75 195.859375 117.421875 195.859375 L 109.804688 195.859375 L 115.3125 167.484375 L 125.15625 167.484375 C 132.421875 167.484375 135.351562 169.011719 136.523438 170.300781 C 138.046875 172.175781 138.398438 175.808594 137.460938 180.734375 Z M 137.460938 180.734375 " fill-opacity="1" fill-rule="nonzero"/><path fill="#ffffff" d="M 289.804688 158.925781 C 284.765625 153.183594 276.914062 150.25 266.25 150.25 L 233.085938 150.25 C 231.914062 150.25 230.976562 151.074219 230.742188 152.128906 L 215.390625 231.265625 C 215.273438 231.96875 215.390625 232.671875 215.859375 233.257812 C 216.328125 233.84375 216.914062 234.078125 217.617188 234.078125 L 234.84375 234.078125 C 236.015625 234.078125 236.953125 233.257812 237.1875 232.203125 L 240.9375 213.09375 L 253.710938 213.09375 C 260.390625 213.09375 266.132812 212.390625 270.46875 210.980469 C 275.039062 209.457031 279.140625 206.996094 282.773438 203.597656 C 285.820312 200.78125 288.398438 197.617188 290.273438 194.214844 C 292.148438 190.816406 293.554688 187.066406 294.375 182.960938 C 296.367188 172.761719 294.84375 164.789062 289.804688 158.925781 Z M 271.875 180.734375 C 270.820312 186.246094 268.828125 190.230469 265.898438 192.457031 C 262.96875 194.6875 258.164062 195.859375 251.835938 195.859375 L 244.21875 195.859375 L 249.726562 167.484375 L 259.570312 167.484375 C 266.835938 167.484375 269.765625 169.011719 270.9375 170.300781 C 272.578125 172.175781 272.929688 175.808594 271.875 180.734375 Z M 271.875 180.734375 " fill-opacity="1" fill-rule="nonzero"/><path fill="#000004" d="M 125.15625 165.140625 C 131.71875 165.140625 136.054688 166.3125 138.28125 168.777344 C 140.507812 171.238281 140.976562 175.339844 139.804688 181.203125 C 138.632812 187.300781 136.289062 191.753906 132.890625 194.332031 C 129.492188 196.914062 124.335938 198.203125 117.421875 198.203125 L 106.992188 198.203125 L 113.4375 165.140625 Z M 83.203125 231.734375 L 100.429688 231.734375 L 104.53125 210.746094 L 119.296875 210.746094 C 125.859375 210.746094 131.132812 210.042969 135.351562 208.636719 C 139.570312 207.230469 143.320312 205.003906 146.835938 201.71875 C 149.765625 199.023438 152.109375 196.09375 153.867188 192.925781 C 155.625 189.761719 156.914062 186.246094 157.617188 182.375 C 159.492188 172.996094 158.085938 165.726562 153.515625 160.453125 C 148.945312 155.175781 141.679688 152.597656 131.71875 152.597656 L 98.554688 152.597656 Z M 83.203125 231.734375 " fill-opacity="1" fill-rule="nonzero"/><path fill="#000004" d="M 170.273438 131.609375 L 187.382812 131.609375 L 183.28125 152.597656 L 198.515625 152.597656 C 208.125 152.597656 214.6875 154.238281 218.320312 157.636719 C 221.953125 161.039062 223.007812 166.429688 221.601562 173.933594 L 214.453125 210.746094 L 197.109375 210.746094 L 203.90625 175.691406 C 204.726562 171.707031 204.375 169.011719 203.085938 167.601562 C 201.796875 166.195312 198.867188 165.375 194.53125 165.375 L 180.820312 165.375 L 172.03125 210.746094 L 154.921875 210.746094 Z M 170.273438 131.609375 " fill-opacity="1" fill-rule="nonzero"/><path fill="#000004" d="M 259.570312 165.140625 C 266.132812 165.140625 270.46875 166.3125 272.695312 168.777344 C 274.921875 171.238281 275.390625 175.339844 274.21875 181.203125 C 273.046875 187.300781 270.703125 191.753906 267.304688 194.332031 C 263.90625 196.914062 258.75 198.203125 251.835938 198.203125 L 241.40625 198.203125 L 247.851562 165.140625 Z M 217.617188 231.734375 L 234.84375 231.734375 L 238.945312 210.746094 L 253.710938 210.746094 C 260.273438 210.746094 265.546875 210.042969 269.765625 208.636719 C 273.984375 207.230469 277.734375 205.003906 281.25 201.71875 C 284.179688 199.023438 286.523438 196.09375 288.28125 192.925781 C 290.039062 189.761719 291.328125 186.246094 292.03125 182.375 C 293.90625 172.996094 292.5 165.726562 287.929688 160.453125 C 283.359375 155.175781 276.09375 152.597656 266.132812 152.597656 L 232.96875 152.597656 Z M 217.617188 231.734375 " fill-opacity="1" fill-rule="nonzero"/></svg>